<svg width="97" height="109" viewBox="0 0 97 109" fill="none" xmlns="http://www.w3.org/2000/svg">
<path d="M50.2883 57.095L36.408 43.548C35.9751 43.0634 35.0328 41.6791 34.7277 40.0182C34.3463 37.942 36.928 33.5158 37.3733 32.7942C37.7295 32.217 37.5827 31.631 37.3406 31.3247C37.0322 30.9376 35.0529 29.2066 34.8203 29.0636C30.9922 26.4236 33.1578 19.3394 34.3636 15.5683C29.1404 10.5019 30.1719 4.65783 30.6786 1.79938C31.084 -0.487376 32.6358 0.545572 33.361 1.34789C40.2199 8.05377 55.7288 23.2167 62.893 30.2215C70.0572 37.2262 65.3308 44.99 62.0721 47.9963C59.8917 50.2817 55.1329 55.2475 53.5411 56.8277C51.9493 58.4078 50.7093 57.6643 50.2883 57.095Z" fill="#FFA012"/>
<path fill-rule="evenodd" clip-rule="evenodd" d="M36.1935 4.11716C35.1432 3.0903 34.1891 2.15746 33.361 1.34789C32.6358 0.545572 31.084 -0.487376 30.6786 1.79938C30.1719 4.65783 29.1404 10.5019 34.3636 15.5683C33.1578 19.3394 30.9922 26.4236 34.8203 29.0636C35.0529 29.2066 37.0322 30.9376 37.3406 31.3247C37.5827 31.631 37.7295 32.217 37.3733 32.7942C36.928 33.5158 34.3463 37.942 34.7277 40.0182C35.0328 41.6791 35.9751 43.0634 36.408 43.548L50.2883 57.095C50.4106 57.2605 50.6022 57.4407 50.8515 57.5742L42.4686 49.3926C41.997 48.8648 40.9707 47.3571 40.6384 45.548C40.223 43.2867 43.0349 38.4657 43.5199 37.6798C43.9079 37.0511 43.7479 36.4129 43.4843 36.0792C43.1484 35.6576 40.9926 33.7722 40.7392 33.6165C36.5697 30.7411 38.9285 23.0251 40.2418 18.9178C34.6699 13.513 35.6329 7.29581 36.1935 4.11716Z" fill="#FF7F12"/>
<path d="M91.7369 45.5258C90.4509 44.8599 87.9527 43.6696 86.9001 43.2869L87.3307 48.3102L87.9622 55.3429C90.4787 53.3909 95.6551 49.378 96.2292 48.9417C96.8033 48.5054 96.6669 48.0949 95.9134 47.7074C95.0332 47.1716 93.0229 46.1918 91.7369 45.5258Z" fill="#FFA012"/>
<path d="M39.4794 70.5863C38.469 70.77 29.7963 72.8061 25.5863 73.8012C22.0958 74.536 23.0602 72.5765 23.9788 71.5048L32.2458 59.4488L28.1123 38.5517C26.2752 28.8151 34.6187 23.7401 38.446 22.477C44.9142 20.8313 60.2157 17.1035 69.6768 15.3583C79.1379 13.613 85.7515 23.1085 85.7515 30.2847C86.3639 37.5948 87.6575 50.9063 87.9331 55.3153C88.2775 60.8266 85.9811 64.2712 82.6514 67.8306C79.9876 70.6781 73.4276 71.4665 70.4805 71.5048C60.5678 71.1221 40.4898 70.4025 39.4794 70.5863Z" fill="#6C53E7"/>
<circle cx="68.4855" cy="37.476" r="7.44889" fill="white"/>
<path d="M47.8037 55.1704L28.6863 51.898C28.0548 51.745 26.4932 51.1403 25.2991 49.9461C23.8065 48.4535 23.419 43.344 23.3759 42.4972C23.3414 41.8198 22.8879 41.4208 22.5148 41.306C22.0411 41.1625 19.429 40.8611 19.1563 40.8754C14.5061 40.8754 12.2671 33.8141 11.119 30.025C3.94276 28.8194 1.47416 23.4229 0.268562 20.7821C-0.695918 18.6694 1.16798 18.6388 2.22049 18.8875C11.6739 20.5141 33.0494 24.1922 42.9239 25.8915C52.7983 27.5908 53.315 36.6654 52.339 40.9902C51.8415 44.1095 50.743 50.8991 50.3297 53.1036C49.9163 55.3082 48.4735 55.4 47.8037 55.1704Z" fill="#FFA012"/>
<path fill-rule="evenodd" clip-rule="evenodd" d="M6.1265 19.5596C4.67808 19.3104 3.36232 19.084 2.22049 18.8875C1.16798 18.6388 -0.695918 18.6694 0.268562 20.7821C1.47416 23.4229 3.94276 28.8194 11.119 30.025C12.2671 33.8141 14.5061 40.8754 19.1563 40.8754C19.429 40.8611 22.0411 41.1625 22.5148 41.306C22.8879 41.4208 23.3414 41.8198 23.3759 42.4972C23.419 43.344 23.8065 48.4535 25.2991 49.9461C26.4932 51.1403 28.0548 51.745 28.6863 51.898L47.8037 55.1704C48.0009 55.238 48.2652 55.2778 48.5505 55.2439L36.994 53.2657C36.3062 53.099 34.6054 52.4404 33.3048 51.1398C31.6791 49.514 31.257 43.9489 31.2101 43.0266C31.1726 42.2888 30.6786 41.8542 30.2721 41.7291C29.7563 41.5728 26.9112 41.2445 26.6142 41.2602C21.5493 41.2602 19.1107 33.5691 17.8601 29.4421C10.2078 28.1565 7.47016 22.4956 6.1265 19.5596Z" fill="#FF7F12"/>
<circle cx="69.7921" cy="38.4955" r="3.6168" fill="#4E3F6F"/>
<path d="M25.3849 109.001V95.692H30.1846V92.3647H16.4509V95.692H21.2365V109.001H25.3849Z" fill="#503EA9"/>
<path d="M42.4181 98.4529H42.5172L45.4763 109.001H49.3982L53.8581 92.3647H49.5681L47.1753 103.72H47.0762L44.1454 92.3647H40.7898L37.859 103.72H37.7599L35.3672 92.3647H31.0772L35.5512 109.001H39.4589L42.4181 98.4529Z" fill="#503EA9"/>
<path d="M59.6919 109.001V92.3647H55.5435V109.001H59.6919Z" fill="#503EA9"/>
<path d="M62.1844 92.3647V109.001H69.037C74.1766 109.001 77.2065 105.886 77.2065 100.591C77.2065 95.2814 74.1766 92.3647 69.037 92.3647H62.1844ZM66.3328 95.692H68.499C71.3449 95.692 72.9731 97.4193 72.9731 100.591C72.9731 103.961 71.4157 105.674 68.499 105.674H66.3328V95.692Z" fill="#503EA9"/>
<path d="M87.2454 109.001V103.21L93.1353 92.3647H88.7461L85.249 99.3024H85.1641L81.6811 92.3647H77.207L83.0969 103.21V109.001H87.2454Z" fill="#503EA9"/>
</svg>
