<svg width="30" height="31" viewBox="0 0 30 31" fill="none" xmlns="http://www.w3.org/2000/svg">
<g clip-path="url(#clip0_105_54)">
<path d="M29.3901 18.72L26.5701 16.51C26.6101 16.17 26.6401 15.77 26.6401 15.35C26.6401 14.93 26.6101 14.53 26.5701 14.19L29.4001 11.98C29.9201 11.57 30.0701 10.83 29.7301 10.22L26.7901 5.14C26.4801 4.57 25.7901 4.27 25.0901 4.53L21.7601 5.87C21.1201 5.41 20.4501 5.02 19.7601 4.71L19.2501 1.18C19.1701 0.51 18.5901 0 17.9001 0H12.0101C11.3201 0 10.7401 0.51 10.6601 1.17L10.1501 4.72C9.48009 5.02 8.82009 5.41 8.15009 5.88L4.81009 4.53C4.18009 4.29 3.44009 4.56 3.12009 5.13L0.180092 10.22C-0.169908 10.81 -0.0199076 11.57 0.510092 11.99L3.33009 14.2C3.29009 14.63 3.26009 15.01 3.26009 15.36C3.26009 15.71 3.28009 16.09 3.33009 16.52L0.500092 18.73C-0.0199076 19.15 -0.169908 19.88 0.170092 20.49L3.11009 25.57C3.42009 26.14 4.10009 26.44 4.81009 26.18L8.14009 24.84C8.78009 25.3 9.45009 25.69 10.1401 26L10.6501 29.53C10.7301 30.2 11.3201 30.71 12.0101 30.71H17.9001C18.5901 30.71 19.1701 30.2 19.2601 29.54L19.7601 26C20.4301 25.7 21.0901 25.31 21.7601 24.84L25.1001 26.18C25.2601 26.24 25.4301 26.27 25.6001 26.27C26.1001 26.27 26.5501 26 26.7801 25.58L29.7301 20.47C30.0601 19.88 29.9201 19.14 29.3901 18.72ZM14.9601 20.48C12.1401 20.48 9.84009 18.18 9.84009 15.36C9.84009 12.54 12.1401 10.24 14.9601 10.24C17.7801 10.24 20.0801 12.54 20.0801 15.36C20.0801 18.18 17.7801 20.48 14.9601 20.48Z" fill="#8C8CB6"/>
</g>
<defs>
<clipPath id="clip0_105_54">
<rect width="29.91" height="30.72" fill="white"/>
</clipPath>
</defs>
</svg>
