<svg width="17" height="15" viewBox="0 0 17 15" fill="none" xmlns="http://www.w3.org/2000/svg">
<path d="M16.6289 2.2811C16.0266 2.55258 15.3787 2.73621 14.6992 2.81821C15.393 2.3957 15.9254 1.72717 16.1767 0.929271C15.5275 1.32071 14.8082 1.60468 14.0433 1.75774C13.4305 1.0943 12.5573 0.679688 11.5905 0.679688C9.73546 0.679688 8.23095 2.20902 8.23095 4.09465C8.23095 4.36232 8.26076 4.62285 8.31839 4.87295C5.52634 4.73058 3.05072 3.37111 1.39363 1.30441C1.1045 1.80867 0.938641 2.3957 0.938641 3.02144C0.938641 4.20595 1.53218 5.25165 2.43313 5.86389C1.88269 5.84632 1.36431 5.69275 0.911582 5.43629C0.911331 5.45081 0.911331 5.46533 0.911331 5.47959C0.911331 7.13422 2.06984 8.51432 3.60642 8.82783C3.32481 8.90627 3.02742 8.94778 2.72151 8.94778C2.50454 8.94778 2.29433 8.92664 2.08939 8.88691C2.51681 10.2433 3.75725 11.2307 5.22769 11.2585C4.0777 12.1745 2.62931 12.7203 1.05489 12.7203C0.784306 12.7203 0.516225 12.7043 0.253906 12.6724C1.73988 13.6417 3.50621 14.2069 5.40332 14.2069C11.5827 14.2069 14.962 9.0033 14.962 4.49017C14.962 4.3422 14.9588 4.19474 14.9523 4.04856C15.6092 3.56722 16.1787 2.96592 16.6289 2.2811Z" fill="white"/>
</svg>
