<svg width="21" height="14" viewBox="0 0 21 14" fill="none" xmlns="http://www.w3.org/2000/svg">
<path fill-rule="evenodd" clip-rule="evenodd" d="M10.3353 13.1529H11.5694C11.5694 13.1529 11.9422 13.1083 12.1325 12.8851C12.3077 12.6802 12.3021 12.2953 12.3021 12.2953C12.3021 12.2953 12.278 10.4936 13.0466 10.2283C13.8042 9.96693 14.7771 11.9696 15.8083 12.7396C16.5881 13.3224 17.1806 13.1946 17.1806 13.1946L19.9379 13.1529C19.9379 13.1529 21.3803 13.0562 20.6963 11.8223C20.6403 11.7214 20.298 10.9096 18.6463 9.24143C16.9174 7.49553 17.1489 7.77792 19.2315 4.75789C20.4999 2.91868 21.0069 1.79581 20.8485 1.31489C20.6975 0.856834 19.7646 0.977904 19.7646 0.977904L16.6601 0.998946C16.6601 0.998946 16.43 0.96479 16.2593 1.0758C16.0925 1.18467 15.9852 1.4384 15.9852 1.4384C15.9852 1.4384 15.4938 2.86165 14.8385 4.07204C13.4561 6.62609 12.9033 6.76088 12.6774 6.6023C12.1519 6.23269 12.283 5.11744 12.283 4.32516C12.283 1.85009 12.6281 0.818105 11.6112 0.550959C11.2737 0.462215 11.0254 0.403663 10.1623 0.394209C9.05462 0.381706 8.11704 0.397868 7.58616 0.680872C7.23299 0.869033 6.96054 1.28835 7.12648 1.31245C7.33165 1.34233 7.79638 1.44876 8.04276 1.8138C8.36089 2.28466 8.34968 3.34227 8.34968 3.34227C8.34968 3.34227 8.53243 6.25586 7.92279 6.61785C7.50431 6.86609 6.93027 6.35924 5.69782 4.04215C5.06632 2.85524 4.58954 1.5433 4.58954 1.5433C4.58954 1.5433 4.4976 1.29811 4.33363 1.16698C4.13462 1.00809 3.85657 0.957472 3.85657 0.957472L0.906479 0.978513C0.906479 0.978513 0.463615 0.991932 0.301044 1.20144C0.156413 1.38777 0.289552 1.77324 0.289552 1.77324C0.289552 1.77324 2.59917 7.65228 5.21431 10.615C7.61223 13.3313 10.3353 13.1529 10.3353 13.1529Z" fill="white"/>
</svg>
