<svg width="19" height="20" viewBox="0 0 19 20" fill="none" xmlns="http://www.w3.org/2000/svg">
<path d="M9.50176 0.551891C5.71075 0.551891 2.1108 0.214924 0.735764 3.74108C0.167791 5.19745 0.250272 7.08885 0.250272 9.7971C0.250272 12.1736 0.174055 14.4072 0.735764 15.8521C2.10767 19.3803 5.73685 19.0423 9.49967 19.0423C13.1299 19.0423 16.8729 19.42 18.2646 15.8521C18.8336 14.3811 18.7501 12.5179 18.7501 9.7971C18.7501 6.1854 18.9495 3.85375 17.1965 2.10319C15.4216 0.32968 13.0213 0.551891 9.49758 0.551891H9.50176ZM8.67277 2.21795C16.5805 2.20543 17.587 1.32702 17.0316 13.5298C16.8342 17.8457 13.5454 17.3721 9.5028 17.3721C2.13168 17.3721 1.91974 17.1613 1.91974 9.79293C1.91974 2.33896 2.50441 2.22212 8.67277 2.21586V2.21795ZM14.4402 3.75256C13.8273 3.75256 13.3304 4.24914 13.3304 4.86152C13.3304 5.47391 13.8273 5.97049 14.4402 5.97049C15.0531 5.97049 15.55 5.47391 15.55 4.86152C15.55 4.24914 15.0531 3.75256 14.4402 3.75256ZM9.50176 5.04931C6.87802 5.04931 4.75125 7.17543 4.75125 9.7971C4.75125 12.4188 6.87802 14.5439 9.50176 14.5439C12.1255 14.5439 14.2512 12.4188 14.2512 9.7971C14.2512 7.17543 12.1255 5.04931 9.50176 5.04931ZM9.50176 6.71536C13.5788 6.71536 13.5841 12.8788 9.50176 12.8788C5.42572 12.8788 5.41945 6.71536 9.50176 6.71536Z" fill="white"/>
</svg>
